#!OML:ASF H:\Pregnant\Project 1\Capture day 1\Session 1\femalepreg.ASF
:FULLY-SPECIFIED
:DEGREES
2943
root 10.4884 12.879 28.2023 620.468 -36.5855 -585.181
lowerback 14.3164 9.52192 29.2787
upperback -2.32354 16.4923 10.5045
thorax -5.89844 6.0432 -5.75933
lowerneck -26.2429 10.4507 12.9504
upperneck 30.6355 15.4272 -14.5279
head 18.3147 5.85115 -5.10651
rclavicle -4.6118e-014 -1.00983e-013
rhumerus -12.4344 -69.7567 4.99082
rradius 21.0122
rwrist 34.4265
rhand -9.93123 -16.9991
rfingers 7.12502
rthumb 16.0499 -46.3544
lclavicle -4.6118e-014 -1.00983e-013
lhumerus -44.2889 36.226 -36.3843
lradius 29.4874
lwrist 40.3261
lhand -46.8669 28.5509
lfingers 7.12502
lthumb -19.5793 57.585
rfemur -418.881 -11.256 283.072
rtibia 40.1862
rfoot -251.938 -233.44
rtoes 38.6223
lfemur -24.9775 13.8246 316.118
ltibia -2.54444e-014
lfoot -13.8282 -3.79548
ltoes -40.343
2944
root 10.4881 12.8792 28.2023 620.465 -36.5906 -585.172
lowerback 14.3142 9.52279 29.2905
upperback -2.32391 16.4937 10.5032
thorax -5.89391 6.04353 -5.76482
lowerneck -26.2451 10.4574 12.9569
upperneck 30.6196 15.4412 -14.5489
head 18.3135 5.85485 -5.11288
rclavicle -1.27222e-013 -1.09332e-013
rhumerus -12.4211 -69.7133 4.95955
rradius 21.037
rwrist 34.3824
rhand -9.96537 -17.0037
rfingers 7.12502
rthumb 16.017 -46.3616
lclavicle -1.27222e-013 -1.09332e-013
lhumerus -44.2548 36.2649 -36.3825
lradius 29.4583
lwrist 40.2555
lhand -46.8933 28.3178
lfingers 7.12502
lthumb -19.6047 57.3493
rfemur -418.885 -11.2373 283.068
rtibia 40.1849
rfoot -251.985 -233.42
rtoes 38.6368
lfemur -24.9768 13.8368 316.122
ltibia -2.22639e-014
lfoot -13.8369 -3.80686
ltoes -40.3294
2945
root 10.4875 12.8793 28.2023 620.462 -36.591 -585.161
lowerback 14.3088 9.52446 29.2965
upperback -2.32397 16.494 10.5026
thorax -5.88909 6.0438 -5.76653
lowerneck -26.2483 10.4634 12.9551
upperneck 30.6106 15.454 -14.5579
head 18.3133 5.85849 -5.1128
rclavicle -1.44715e-013 1.41137e-014
rhumerus -12.3871 -69.6825 4.92001
rradius 21.0434
rwrist 34.3708
rhand -10.0001 -17.0064
rfingers 7.12502
rthumb 15.9835 -46.367
lclavicle -1.44715e-013 1.41137e-014
lhumerus -44.2182 36.294 -36.3779
lradius 29.4234
lwrist 40.182
lhand -46.8944 28.2224
lfingers 7.12502
lthumb -19.6058 57.2538
rfemur -418.89 -11.2243 283.06
rtibia 40.1814
rfoot -252.021 -233.41
rtoes 38.6442
lfemur -24.9765 13.85 316.121
ltibia -4.13472e-014
lfoot -13.8471 -3.81426
ltoes -40.3219
2946
root 10.4867 12.8791 28.2023 620.457 -36.5842 -585.146
lowerback 14.3041 9.52546 29.2967
upperback -2.32267 16.4929 10.5002
thorax -5.88426 6.04406 -5.76798
lowerneck -26.2525 10.4697 12.9671
upperneck 30.6084 15.4698 -14.5866
head 18.3225 5.86216 -5.12442
rclavicle 2.38542e-014 3.95581e-014
rhumerus -12.3358 -69.6539 4.86792
rradius 21.0397
rwrist 34.3767
rhand -10.0303 -17.0128
rfingers 7.12502
rthumb 15.9545 -46.3757
lclavicle 2.38542e-014 3.95581e-014
lhumerus -44.1854 36.3209 -36.3789
lradius 29.3876
lwrist 40.1095
lhand -46.8838 28.1909
lfingers 7.12502
lthumb -19.5956 57.2234
rfemur -418.897 -11.2225 283.052
rtibia 40.1755
rfoot -252.037 -233.405
rtoes 38.6497
lfemur -24.9751 13.8675 316.113
ltibia -1.43125e-014
lfoot -13.8597 -3.82005
ltoes -40.3124
2947
root 10.4856 12.8788 28.2024 620.452 -36.5725 -585.128
lowerback 14.2984 9.52745 29.2903
upperback -2.32374 16.4927 10.4974
thorax -5.88294 6.04444 -5.76741
lowerneck -26.2509 10.4743 12.9836
upperneck 30.6118 15.4834 -14.6186
head 18.334 5.86517 -5.13965
rclavicle -3.18055e-015 1.1609e-013
rhumerus -12.2717 -69.6284 4.80952
rradius 21.0234
rwrist 34.4043
rhand -10.058 -17.0184
rfingers 7.12502
rthumb 15.9278 -46.3834
lclavicle -3.18055e-015 1.1609e-013
lhumerus -44.1541 36.3432 -36.3824
lradius 29.3582
lwrist 40.0461
lhand -46.8726 28.1957
lfingers 7.12502
lthumb -19.5848 57.2293
rfemur -418.906 -11.2282 283.041
rtibia 40.1672
rfoot -252.039 -233.408
rtoes 38.6472
lfemur -24.9756 13.8865 316.1
ltibia 3.65764e-014
lfoot -13.8751 -3.82365
ltoes -40.3095
2948
root 10.4844 12.8782 28.2024 620.448 -36.5546 -585.108
lowerback 14.2932 9.52857 29.281
upperback -2.32475 16.4917 10.4896
thorax -5.88124 6.04499 -5.77123
lowerneck -26.2506 10.4776 12.9974
upperneck 30.618 15.4931 -14.6426
head 18.3449 5.86729 -5.15172
rclavicle -1.1291e-013 -9.46215e-014
rhumerus -12.2148 -69.6032 4.74529
rradius 21.0184
rwrist 34.4406
rhand -10.0732 -17.0202
rfingers 7.12502
rthumb 15.9132 -46.3864
lclavicle -1.1291e-013 -9.46215e-014
lhumerus -44.1273 36.3695 -36.3962
lradius 29.3362
lwrist 39.9999
lhand -46.8605 28.2106
lfingers 7.12502
lthumb -19.5732 57.2453
rfemur -418.917 -11.2495 283.032
rtibia 40.1569
rfoot -252.018 -233.418
rtoes 38.6434
lfemur -24.9772 13.9077 316.08
ltibia -1.74931e-014
lfoot -13.8911 -3.82697
ltoes -40.3124
